<?xml version="1.0" encoding="UTF-8"?>
<svg version="1.1" xmlns="http://www.w3.org/2000/svg" width="500" height="500">
<path d="M0 0 C4.62 0 9.24 0 14 0 C17.22641369 3.92133356 18.95433616 6.55439535 21 11 C21.96850477 12.69364167 22.94662659 14.3818473 23.9375 16.0625 C26 19.72990354 26 19.72990354 26 22 C26.66 22 27.32 22 28 22 C28.79275148 23.4160599 29.58415312 24.83287553 30.375 26.25 C30.81585938 27.03890625 31.25671875 27.8278125 31.7109375 28.640625 C32.85747823 30.73914197 33.94649552 32.8536077 35 35 C36.17869534 31.46391399 36.09639691 28.69100966 36.0625 24.9609375 C36.05871338 24.27947662 36.05492676 23.59801575 36.05102539 22.89590454 C36.03881867 20.72220521 36.02017967 18.54863907 36 16.375 C35.9735104 13.50781632 35.95347714 10.6406968 35.9375 7.7734375 C35.92589844 6.49903809 35.91429687 5.22463867 35.90234375 3.91162109 C36 1 36 1 37 0 C41.29 0 45.58 0 50 0 C50 20.46 50 40.92 50 62 C36 62 36 62 32.83203125 59.1328125 C31.77124023 57.22290039 31.77124023 57.22290039 30.8125 55.125 C30.02996829 53.66725807 29.24605706 52.21025604 28.4609375 50.75390625 C28.06874023 49.98320801 27.67654297 49.21250977 27.27246094 48.41845703 C25.03890103 44.17332188 22.46661098 40.1358337 19.9375 36.0625 C18.61190381 33.87976987 17.28774793 31.69617752 15.96459961 29.51196289 C15.08458975 28.01265335 15.08458975 28.01265335 14 27 C14 38.55 14 50.1 14 62 C9.38 62 4.76 62 0 62 C0 41.54 0 21.08 0 0 Z " fill="#0C65E8" transform="translate(284,213)"/>
<path d="M0 0 C4.29 0 8.58 0 13 0 C13 8.25 13 16.5 13 25 C20.59 25 28.18 25 36 25 C36 16.75 36 8.5 36 0 C40.29 0 44.58 0 49 0 C49 20.46 49 40.92 49 62 C44.38 62 39.76 62 35 62 C35.33 53.75 35.66 45.5 36 37 C28.41 37 20.82 37 13 37 C13 45.25 13 53.5 13 62 C8.38 62 3.76 62 -1 62 C-1.02258647 54.3591717 -1.04093568 46.71835581 -1.05181217 39.07750225 C-1.05703216 35.52960152 -1.0641138 31.9817248 -1.07543945 28.43383789 C-1.08837663 24.35562916 -1.09323552 20.27744567 -1.09765625 16.19921875 C-1.10281754 14.92414963 -1.10797882 13.64908051 -1.11329651 12.33537292 C-1.11337204 11.15437515 -1.11344757 9.97337738 -1.11352539 8.7565918 C-1.11685631 7.19439156 -1.11685631 7.19439156 -1.12025452 5.60063171 C-1 3 -1 3 0 0 Z " fill="#1F70E8" transform="translate(38,213)"/>
<path d="M0 0 C4.29 0 8.58 0 13 0 C13.33 6.93 13.66 13.86 14 21 C15.32 20.01 16.64 19.02 18 18 C23.1245871 17.13585394 28.55540324 16.84719684 33.3359375 19.1015625 C37.65706359 22.51105861 38.69820755 25.63883643 40 31 C40.15494629 33.48430549 40.21596849 35.97579665 40.1953125 38.46484375 C40.1924826 39.14301651 40.18965271 39.82118927 40.18673706 40.51991272 C40.17565416 42.65929766 40.1505736 44.7982443 40.125 46.9375 C40.11495476 48.39908244 40.10583163 49.86067153 40.09765625 51.32226562 C40.07575425 54.88164979 40.04130866 58.44078203 40 62 C35.71 62 31.42 62 27 62 C26.98582031 59.94136719 26.97164063 57.88273437 26.95703125 55.76171875 C26.92226264 53.76600026 26.88731983 51.77028054 26.84741211 49.7746582 C26.82422922 48.38871037 26.80983559 47.0025863 26.80444336 45.61645508 C26.79515803 43.6229668 26.75154022 41.62973172 26.70703125 39.63671875 C26.6913208 38.43748779 26.67561035 37.23825684 26.65942383 36.00268555 C26.2861924 32.82464148 26.2861924 32.82464148 23.6237793 31.05004883 C21.03616422 29.73347444 21.03616422 29.73347444 18.3125 30.5625 C15.63232012 32.22855776 15.11364384 33.09415923 14 36 C13.74185625 38.67585696 13.74185625 38.67585696 13.83984375 41.5703125 C13.85080078 42.63121094 13.86175781 43.69210937 13.87304688 44.78515625 C13.89431641 45.88730469 13.91558594 46.98945313 13.9375 48.125 C13.9718386 50.31503973 14.00200082 52.50515021 14.02734375 54.6953125 C14.04531006 55.66484863 14.06327637 56.63438477 14.08178711 57.63330078 C14 60 14 60 13 62 C8.71 62 4.42 62 0 62 C0 41.54 0 21.08 0 0 Z " fill="#1A69E4" transform="translate(239,213)"/>
<path d="M0 0 C0.99 0.33 1.98 0.66 3 1 C3 15.52 3 30.04 3 45 C-1.29 45 -5.58 45 -10 45 C-10 44.34 -10 43.68 -10 43 C-10.66 43 -11.32 43 -12 43 C-12 43.66 -12 44.32 -12 45 C-18.08332767 47.65170693 -23.27437022 47.40544083 -29.40234375 45.09375 C-35.06728632 42.30369509 -38.87392119 39.03806381 -41 33 C-42.7979614 24.07402594 -42.28630454 17.04097441 -38 9 C-37.67 8.34 -37.34 7.68 -37 7 C-36.34 7 -35.68 7 -35 7 C-35 6.34 -35 5.68 -35 5 C-28.5319451 0.07195817 -21.92880402 0.16945536 -14 1 C-11.57421875 2.0234375 -11.57421875 2.0234375 -10 3 C-10 2.34 -10 1.68 -10 1 C-6.85658007 -0.57170996 -3.44228549 -0.23175783 0 0 Z M-25.9375 13.75 C-29.05594319 18.66391049 -28.86984695 23.33424012 -28 29 C-26.19196596 32.07365786 -25.13960536 33.43019732 -22 35 C-16.62332623 35.35453923 -16.62332623 35.35453923 -12 33 C-9.20092439 28.27052742 -8.43433432 24.54007445 -9.30078125 19.08984375 C-10.59823981 15.2119648 -12.45850455 14.03308072 -16 12 C-20.3016707 11.24532093 -22.18686986 11.51558204 -25.9375 13.75 Z " fill="#1068E8" transform="translate(180,230)"/>
<path d="M0 0 C0.71542969 -0.00128906 1.43085937 -0.00257813 2.16796875 -0.00390625 C7.67324118 0.10700583 10.92740843 0.96692675 15.1875 4.375 C15.1875 5.035 15.1875 5.695 15.1875 6.375 C15.8475 6.375 16.5075 6.375 17.1875 6.375 C21.64390416 13.70650362 22.1875 17.4223696 22.1875 26.375 C11.9575 26.375 1.7275 26.375 -8.8125 26.375 C-6.57204263 32.31964112 -6.57204263 32.31964112 -3.0625 33.8125 C0.62612398 34.45091569 3.53311641 34.10587672 7.1875 33.375 C7.5175 32.385 7.8475 31.395 8.1875 30.375 C8.8475 30.375 9.5075 30.375 10.1875 30.375 C10.1875 29.715 10.1875 29.055 10.1875 28.375 C11.64542884 28.32100264 13.10392712 28.28220823 14.5625 28.25 C15.78066406 28.21519531 15.78066406 28.21519531 17.0234375 28.1796875 C19.1875 28.375 19.1875 28.375 21.1875 30.375 C20.68399058 35.24225769 17.85798498 38.70451502 14.5 42.0625 C9.71917298 45.79531321 4.6496352 46.66980698 -1.3125 46.1875 C-5.7734301 45.55133258 -9.66531804 44.10927609 -13.8125 42.375 C-13.8125 41.715 -13.8125 41.055 -13.8125 40.375 C-14.4725 40.375 -15.1325 40.375 -15.8125 40.375 C-17.06640625 38.73046875 -17.06640625 38.73046875 -18.375 36.5625 C-18.80941406 35.85480469 -19.24382812 35.14710938 -19.69140625 34.41796875 C-22.7807447 28.78826837 -22.44338785 22.61299224 -21.8125 16.375 C-19.91263482 10.44678998 -17.21458963 5.69936285 -11.8125 2.375 C-11.26335937 2.02179688 -10.71421875 1.66859375 -10.1484375 1.3046875 C-6.80729278 -0.02506575 -3.54475308 -0.00651609 0 0 Z M-6.25 12.375 C-6.765625 13.035 -7.28125 13.695 -7.8125 14.375 C-7.4825 15.365 -7.1525 16.355 -6.8125 17.375 C-2.1925 17.375 2.4275 17.375 7.1875 17.375 C6.8575 15.725 6.5275 14.075 6.1875 12.375 C1.84414728 9.47943152 -2.07310217 8.94780178 -6.25 12.375 Z " fill="#0C66EA" transform="translate(113.8125,230.625)"/>
<path d="M0 0 C0.49113281 0.3196875 0.98226562 0.639375 1.48828125 0.96875 C1.48828125 1.62875 1.48828125 2.28875 1.48828125 2.96875 C2.06578125 3.175 2.64328125 3.38125 3.23828125 3.59375 C8.16466492 6.6043178 9.89755244 11.48987216 11.19140625 16.84375 C11.56638713 19.52782368 11.48828125 22.25860938 11.48828125 24.96875 C0.92828125 24.96875 -9.63171875 24.96875 -20.51171875 24.96875 C-19.25467273 30.80373651 -19.25467273 30.80373651 -16.32421875 32.40625 C-12.68912502 33.13326875 -10.10388775 32.88312029 -6.51171875 31.96875 C-5.15803279 30.65608482 -3.82372279 29.32307675 -2.51171875 27.96875 C2.10828514 26.56266186 5.06046244 27.17653762 9.48828125 28.96875 C9.48828125 30.28875 9.48828125 31.60875 9.48828125 32.96875 C8.82828125 32.96875 8.16828125 32.96875 7.48828125 32.96875 C7.40578125 33.54625 7.32328125 34.12375 7.23828125 34.71875 C5.83457353 38.92987316 3.13064717 40.62867393 -0.69921875 42.65625 C-7.37813365 45.23382697 -13.56816255 45.71277525 -20.3046875 43.10546875 C-25.53992552 40.40908952 -30.07534486 36.74601386 -32.51171875 31.28125 C-34.6420271 24.03539859 -34.59913944 16.54374079 -31.57421875 9.59375 C-25.1871933 -1.31521909 -11.7629209 -4.82956628 0 0 Z M-18.51171875 10.96875 C-19.17171875 12.61875 -19.83171875 14.26875 -20.51171875 15.96875 C-15.23171875 15.96875 -9.95171875 15.96875 -4.51171875 15.96875 C-5.00324357 11.10742505 -5.00324357 11.10742505 -7.51171875 8.96875 C-13.39508778 8.45908587 -13.39508778 8.45908587 -18.51171875 10.96875 Z " fill="#0D63E4" transform="translate(373.51171875,232.03125)"/>
<path d="M0 0 C0 0.66 0 1.32 0 2 C0.66 2 1.32 2 2 2 C4.56616632 5.84924948 4.55097676 8.4349304 5 13 C1.04 13 -2.92 13 -7 13 C-7.33 11.68 -7.66 10.36 -8 9 C-11.3 8.67 -14.6 8.34 -18 8 C-18 9.65 -18 11.3 -18 13 C-16.989375 13.144375 -15.97875 13.28875 -14.9375 13.4375 C-13.638125 13.623125 -12.33875 13.80875 -11 14 C-9.865625 14.0825 -8.73125 14.165 -7.5625 14.25 C-1.81175755 15.46068262 2.72604628 18.08906942 6 23 C6.265625 25.55859375 6.265625 25.55859375 6.25 28.4375 C6.25773437 29.85869141 6.25773437 29.85869141 6.265625 31.30859375 C5.99748089 34.02552453 5.38531142 35.67465583 4 38 C3.34 38 2.68 38 2 38 C2 38.66 2 39.32 2 40 C-7.75117649 44.56004913 -14.73736644 44.9854934 -25 42 C-25 41.34 -25 40.68 -25 40 C-25.598125 39.773125 -26.19625 39.54625 -26.8125 39.3125 C-29.68011113 37.59193332 -30.62059949 36.03468112 -32 33 C-32.1875 29.6875 -32.1875 29.6875 -32 27 C-27.85738687 25.44652008 -24.23334718 26.11236269 -20 27 C-19.69578125 27.65097656 -19.3915625 28.30195313 -19.078125 28.97265625 C-18.16408236 31.24557791 -18.16408236 31.24557791 -15.6171875 31.828125 C-14.71226562 31.96734375 -13.80734375 32.1065625 -12.875 32.25 C-11.96492188 32.39953125 -11.05484375 32.5490625 -10.1171875 32.703125 C-9.41851562 32.80109375 -8.71984375 32.8990625 -8 33 C-8 31.02 -8 29.04 -8 27 C-9.2684375 26.85304688 -9.2684375 26.85304688 -10.5625 26.703125 C-17.53071443 25.78458764 -22.93208289 24.56936301 -29 21 C-29 20.34 -29 19.68 -29 19 C-29.66 19 -30.32 19 -31 19 C-32.75179535 13.74461396 -32.64761951 9.51111219 -30.5 4.5 C-30.005 3.675 -29.51 2.85 -29 2 C-28.34 2 -27.68 2 -27 2 C-27 1.34 -27 0.68 -27 0 C-19.57644305 -4.45413417 -7.41006856 -4.33285632 0 0 Z " fill="#226CDE" transform="translate(420,233)"/>
<path d="M0 0 C3.09244792 0.03255208 6.18489583 0.06510417 9.27734375 0.09765625 C9.27734375 4.05765625 9.27734375 8.01765625 9.27734375 12.09765625 C12.57734375 12.09765625 15.87734375 12.09765625 19.27734375 12.09765625 C19.27734375 16.05765625 19.27734375 20.01765625 19.27734375 24.09765625 C16.30734375 24.42765625 13.33734375 24.75765625 10.27734375 25.09765625 C10.25029067 27.51439849 10.23047937 29.93083565 10.21484375 32.34765625 C10.20646484 33.02957031 10.19808594 33.71148437 10.18945312 34.4140625 C10.17305983 37.79108179 10.22105607 40.87057264 11.27734375 44.09765625 C12.70046875 44.06671875 12.70046875 44.06671875 14.15234375 44.03515625 C17.27734375 44.09765625 17.27734375 44.09765625 19.27734375 45.09765625 C19.27734375 48.72765625 19.27734375 52.35765625 19.27734375 56.09765625 C16.86037503 56.15176749 14.44462588 56.19137903 12.02734375 56.22265625 C11.34542969 56.23941406 10.66351563 56.25617188 9.9609375 56.2734375 C6.14735624 56.31046256 3.49073041 56.17838167 0.27734375 54.09765625 C-3.83728606 48.14538543 -4.35925038 41.56116544 -4.47265625 34.53515625 C-4.50230469 33.62185547 -4.53195312 32.70855469 -4.5625 31.76757812 C-4.63234475 29.54418702 -4.6854537 27.32179157 -4.72265625 25.09765625 C-6.37265625 24.76765625 -8.02265625 24.43765625 -9.72265625 24.09765625 C-9.72265625 20.13765625 -9.72265625 16.17765625 -9.72265625 12.09765625 C-8.07265625 11.76765625 -6.42265625 11.43765625 -4.72265625 11.09765625 C-4.66207031 10.38738281 -4.60148437 9.67710937 -4.5390625 8.9453125 C-4.45527344 8.02621094 -4.37148438 7.10710937 -4.28515625 6.16015625 C-4.20394531 5.24363281 -4.12273437 4.32710937 -4.0390625 3.3828125 C-3.58012172 0.06824017 -3.40295286 0.12205713 0 0 Z " fill="#1168E4" transform="translate(437.72265625,218.90234375)"/>
<path d="M0 0 C9.27734375 -0.09765625 9.27734375 -0.09765625 12 0 C13 1 13 1 13.09765625 3.50390625 C13.08605469 4.51324219 13.07445312 5.52257812 13.0625 6.5625 C13.05347656 7.57441406 13.04445312 8.58632812 13.03515625 9.62890625 C13.02355469 10.41136719 13.01195312 11.19382813 13 12 C15.97 12 18.94 12 22 12 C22 15.96 22 19.92 22 24 C19.03 24 16.06 24 13 24 C13.33 30.6 13.66 37.2 14 44 C16.31 44 18.62 44 21 44 C22 45 22 45 22.09765625 47.50390625 C22.08605469 48.51324219 22.07445312 49.52257812 22.0625 50.5625 C22.05347656 51.57441406 22.04445312 52.58632813 22.03515625 53.62890625 C22.02355469 54.41136719 22.01195312 55.19382812 22 56 C19.43571485 56.13559675 16.87864784 56.23433188 14.3125 56.3125 C13.59126953 56.35439453 12.87003906 56.39628906 12.12695312 56.43945312 C8.05261858 56.53247446 6.44514559 56.3303075 3.0625 53.8203125 C-2.67288371 45.97760978 -1.24688649 34.27195933 -1 25 C-2.65 24.67 -4.3 24.34 -6 24 C-6 20.04 -6 16.08 -6 12 C-4.02 12 -2.04 12 0 12 C0 8.04 0 4.08 0 0 Z " fill="#156AE8" transform="translate(213,219)"/>
<path d="M0 0 C4.29 0 8.58 0 13 0 C13 20.46 13 40.92 13 62 C8.71 62 4.42 62 0 62 C0 41.54 0 21.08 0 0 Z " fill="#1D6AE3" transform="translate(190,213)"/>
<path d="M0 0 C3.63 0 7.26 0 11 0 C11 8.58 11 17.16 11 26 C13.64 26 16.28 26 19 26 C21.00720923 26.28674418 23.01178687 26.60235737 25 27 C25 27.99 25 28.98 25 30 C25.99 30.33 26.98 30.66 28 31 C27.67 31.66 27.34 32.32 27 33 C28.32 33 29.64 33 31 33 C31.33 32.01 31.66 31.02 32 30 C34 33.875 34 33.875 34 35 C26.41 35.33 18.82 35.66 11 36 C10.67 43.59 10.34 51.18 10 59 C3 59 3 59 1 58 C0.34 58.66 -0.32 59.32 -1 60 C-2.04518445 50.31337984 -2.10371911 40.72654773 -2 31 C-1.34 31 -0.68 31 0 31 C0 20.77 0 10.54 0 0 Z " fill="#0E64E6" transform="translate(39,214)"/>
<path d="M0 0 C0.71542969 -0.00128906 1.43085937 -0.00257813 2.16796875 -0.00390625 C7.67324118 0.10700583 10.92740843 0.96692675 15.1875 4.375 C15.1875 5.035 15.1875 5.695 15.1875 6.375 C15.8475 6.375 16.5075 6.375 17.1875 6.375 C21.64390416 13.70650362 22.1875 17.4223696 22.1875 26.375 C5.8525 26.87 5.8525 26.87 -10.8125 27.375 C-10.4825 26.385 -10.1525 25.395 -9.8125 24.375 C0.0875 24.375 9.9875 24.375 20.1875 24.375 C19.6925 19.92 19.6925 19.92 19.1875 15.375 C18.259375 15.08625 17.33125 14.7975 16.375 14.5 C13.1875 13.375 13.1875 13.375 10.1875 11.375 C9.5275 13.685 8.8675 15.995 8.1875 18.375 C5.24993881 18.4019501 2.31262445 18.42181474 -0.625 18.4375 C-1.87506836 18.45006836 -1.87506836 18.45006836 -3.15039062 18.46289062 C-4.35405273 18.46772461 -4.35405273 18.46772461 -5.58203125 18.47265625 C-6.68961792 18.48051147 -6.68961792 18.48051147 -7.81958008 18.48852539 C-9.8125 18.375 -9.8125 18.375 -12.8125 17.375 C-12.8125 16.715 -12.8125 16.055 -12.8125 15.375 C-15.1225 15.705 -17.4325 16.035 -19.8125 16.375 C-19.75248496 18.64656921 -19.66370032 20.91739274 -19.5625 23.1875 C-19.51609375 24.45207031 -19.4696875 25.71664063 -19.421875 27.01953125 C-19.17060973 30.44818876 -19.17060973 30.44818876 -16.765625 32.07421875 C-16.12109375 32.50347656 -15.4765625 32.93273437 -14.8125 33.375 C-14.8125 34.695 -14.8125 36.015 -14.8125 37.375 C-14.1525 37.705 -13.4925 38.035 -12.8125 38.375 C-12.8125 39.365 -12.8125 40.355 -12.8125 41.375 C-11.8225 41.375 -10.8325 41.375 -9.8125 41.375 C-10.1425 42.035 -10.4725 42.695 -10.8125 43.375 C-11.8025 43.045 -12.7925 42.715 -13.8125 42.375 C-13.8125 41.715 -13.8125 41.055 -13.8125 40.375 C-14.4725 40.375 -15.1325 40.375 -15.8125 40.375 C-17.06640625 38.73046875 -17.06640625 38.73046875 -18.375 36.5625 C-18.80941406 35.85480469 -19.24382812 35.14710938 -19.69140625 34.41796875 C-22.7807447 28.78826837 -22.44338785 22.61299224 -21.8125 16.375 C-19.91263482 10.44678998 -17.21458963 5.69936285 -11.8125 2.375 C-11.26335937 2.02179688 -10.71421875 1.66859375 -10.1484375 1.3046875 C-6.80729278 -0.02506575 -3.54475308 -0.00651609 0 0 Z M-6.25 12.375 C-6.765625 13.035 -7.28125 13.695 -7.8125 14.375 C-7.4825 15.365 -7.1525 16.355 -6.8125 17.375 C-2.1925 17.375 2.4275 17.375 7.1875 17.375 C6.8575 15.725 6.5275 14.075 6.1875 12.375 C1.84414728 9.47943152 -2.07310217 8.94780178 -6.25 12.375 Z " fill="#0C65E4" transform="translate(113.8125,230.625)"/>
<path d="M0 0 C0.99 0.33 1.98 0.66 3 1 C3 15.52 3 30.04 3 45 C-1.29 45 -5.58 45 -10 45 C-10.33 44.01 -10.66 43.02 -11 42 C-10.01 42 -9.02 42 -8 42 C-8 42.66 -8 43.32 -8 44 C-4.7 44 -1.4 44 2 44 C2 30.47 2 16.94 2 3 C-1.3 3 -4.6 3 -8 3 C-8 4.32 -8 5.64 -8 7 C-8.99 7 -9.98 7 -11 7 C-11 7.66 -11 8.32 -11 9 C-12.58960328 10.80636736 -13.83852297 11.91926148 -16 13 C-17.11375 12.938125 -18.2275 12.87625 -19.375 12.8125 C-22.97118831 12.66285185 -22.97118831 12.66285185 -25.203125 14.63671875 C-27.47774895 17.62834373 -27.47731287 19.27953211 -27.375 23 C-27.36210937 24.03125 -27.34921875 25.0625 -27.3359375 26.125 C-27.01091829 28.90655972 -26.42920883 30.62179651 -25 33 C-26.32 32.67 -27.64 32.34 -29 32 C-29 27.38 -29 22.76 -29 18 C-30.32 17.67 -31.64 17.34 -33 17 C-33.12375 18.27875 -33.2475 19.5575 -33.375 20.875 C-33.75 24.75 -33.75 24.75 -36 27 C-37 24 -37 24 -37 21 C-37.99 20.67 -38.98 20.34 -40 20 C-40 24.29 -40 28.58 -40 33 C-40.33 33 -40.66 33 -41 33 C-42.20452612 23.91368339 -42.36419512 17.18709473 -38 9 C-37.67 8.34 -37.34 7.68 -37 7 C-36.34 7 -35.68 7 -35 7 C-35 6.34 -35 5.68 -35 5 C-28.5319451 0.07195817 -21.92880402 0.16945536 -14 1 C-11.57421875 2.0234375 -11.57421875 2.0234375 -10 3 C-10 2.34 -10 1.68 -10 1 C-6.85658007 -0.57170996 -3.44228549 -0.23175783 0 0 Z " fill="#0D65E7" transform="translate(180,230)"/>
<path d="M0 0 C7.87354662 0.80415796 14.89108338 1.59657506 21 7 C23.22698735 10.34048103 23.2711921 11.53285581 23.25 15.4375 C23.25773437 16.85869141 23.25773437 16.85869141 23.265625 18.30859375 C22.99748089 21.02552453 22.38531142 22.67465583 21 25 C20.34 25 19.68 25 19 25 C19 25.66 19 26.32 19 27 C9.24882351 31.56004913 2.26263356 31.9854934 -8 29 C-8 28.34 -8 27.68 -8 27 C-8.598125 26.773125 -9.19625 26.54625 -9.8125 26.3125 C-12.68011113 24.59193332 -13.62059949 23.03468112 -15 20 C-15.1875 16.6875 -15.1875 16.6875 -15 14 C-10.85738687 12.44652008 -7.23334718 13.11236269 -3 14 C-2.69578125 14.65097656 -2.3915625 15.30195313 -2.078125 15.97265625 C-1.16408236 18.24557791 -1.16408236 18.24557791 1.3828125 18.828125 C2.28773438 18.96734375 3.19265625 19.1065625 4.125 19.25 C5.03507812 19.39953125 5.94515625 19.5490625 6.8828125 19.703125 C7.58148438 19.80109375 8.28015625 19.8990625 9 20 C9 18.02 9 16.04 9 14 C4.71 13.34 0.42 12.68 -4 12 C-3.67 11.01 -3.34 10.02 -3 9 C-1.33388095 8.957279 0.33382885 8.95936168 2 9 C2.33 9.33 2.66 9.66 3 10 C4.34747084 10.23075082 5.70377565 10.41153063 7.0625 10.5625 C8.361875 10.706875 9.66125 10.85125 11 11 C11.06058594 11.84304688 11.12117188 12.68609375 11.18359375 13.5546875 C11.30927734 15.19824219 11.30927734 15.19824219 11.4375 16.875 C11.55931641 18.51082031 11.55931641 18.51082031 11.68359375 20.1796875 C11.83001703 22.94728971 11.83001703 22.94728971 13 25 C13.99 24.34 14.98 23.68 16 23 C16.99 23 17.98 23 19 23 C19 18.38 19 13.76 19 9 C17.68 8.34 16.36 7.68 15 7 C15 6.34 15 5.68 15 5 C12.36 5.33 9.72 5.66 7 6 C7 5.34 7 4.68 7 4 C6.21625 3.71125 5.4325 3.4225 4.625 3.125 C2 2 2 2 0 0 Z " fill="#2B6BDB" transform="translate(403,246)"/>
<path d="M0 0 C2.51171875 1.03125 2.51171875 1.03125 4 2 C4 2.66 4 3.32 4 4 C4.5775 4.20625 5.155 4.4125 5.75 4.625 C10.67638367 7.6355678 12.40927119 12.52112216 13.703125 17.875 C14.07810588 20.55907368 14 23.28985938 14 26 C3.77 26 -6.46 26 -17 26 C-17 25.67 -17 25.34 -17 25 C-7.1 25 2.8 25 13 25 C13 23.68 13 22.36 13 21 C12.34 21 11.68 21 11 21 C11 20.34 11 19.68 11 19 C10.38125 18.896875 9.7625 18.79375 9.125 18.6875 C5.81936257 17.61802907 4.87750643 14.81625965 3 12 C3.99 11.67 4.98 11.34 6 11 C6 11.66 6 12.32 6 13 C6.66 13 7.32 13 8 13 C7.505 10.525 7.505 10.525 7 8 C5.8553125 7.814375 5.8553125 7.814375 4.6875 7.625 C2 7 2 7 -1 5 C-0.67 5.86625 -0.34 6.7325 0 7.625 C0.98731341 10.95718275 1.16420974 13.55159538 1 17 C-1.296537 18.1482685 -2.58313167 18.11561175 -5.1328125 18.09765625 C-5.93847656 18.09443359 -6.74414062 18.09121094 -7.57421875 18.08789062 C-8.41597656 18.07951172 -9.25773437 18.07113281 -10.125 18.0625 C-10.97449219 18.05798828 -11.82398438 18.05347656 -12.69921875 18.04882812 C-14.79950909 18.03702874 -16.8997633 18.01909306 -19 18 C-18.67 15.69 -18.34 13.38 -18 11 C-18.99 11 -19.98 11 -21 11 C-21 12.32 -21 13.64 -21 15 C-21.66 15 -22.32 15 -23 15 C-23 12.36 -23 9.72 -23 7 C-23.99 6.67 -24.98 6.34 -26 6 C-18.35420241 -1.31905411 -9.96245407 -1.06703936 0 0 Z M-16 12 C-16.66 13.65 -17.32 15.3 -18 17 C-12.72 17 -7.44 17 -2 17 C-2.49152482 12.13867505 -2.49152482 12.13867505 -5 10 C-10.88336903 9.49033587 -10.88336903 9.49033587 -16 12 Z " fill="#236EE1" transform="translate(371,231)"/>
<path d="M0 0 C1.32 0.33 2.64 0.66 4 1 C4.33 5.62 4.66 10.24 5 15 C10.46191074 16.82063691 15.46398584 18.25541318 21 16 C21.33 15.01 21.66 14.02 22 13 C22.33 14.32 22.66 15.64 23 17 C22.34 17 21.68 17 21 17 C21 17.99 21 18.98 21 20 C20.34 20 19.68 20 19 20 C18.67 20.99 18.34 21.98 18 23 C17.34 23.33 16.68 23.66 16 24 C15.34786708 26.02463255 15.34786708 26.02463255 15 28 C15.66 28.33 16.32 28.66 17 29 C13.45524684 30.77237658 9.7647032 29.8476428 6 29 C-0.08799205 26.58613054 -3.87778182 23.9037043 -7 18 C-7.28139654 15.21417426 -7.38863832 12.87643745 -7.25 10.125 C-7.23195312 9.43664062 -7.21390625 8.74828125 -7.1953125 8.0390625 C-7.14863748 6.3587619 -7.07690939 4.67918837 -7 3 C-5.68 2.67 -4.36 2.34 -3 2 C-2 5 -2 5 -2 8 C-1.34 5.36 -0.68 2.72 0 0 Z " fill="#2473E5" transform="translate(147,247)"/>
<path d="M0 0 C3.04221831 1.49609091 5.05736937 3.22574155 7 6 C7.9375 8.875 7.9375 8.875 8 11 C7.01 11.495 7.01 11.495 6 12 C5.34 11.01 4.68 10.02 4 9 C3.01 9.66 2.02 10.32 1 11 C1.66 12.32 2.32 13.64 3 15 C2.01 16.32 1.02 17.64 0 19 C0.99 19.99 1.98 20.98 3 22 C1.35 22.33 -0.3 22.66 -2 23 C-2.33 28.94 -2.66 34.88 -3 41 C-3.33 41 -3.66 41 -4 41 C-4.00410889 40.22809326 -4.00821777 39.45618652 -4.01245117 38.66088867 C-4.0453119 35.16897579 -4.11594893 31.67882526 -4.1875 28.1875 C-4.19330078 26.97255859 -4.19910156 25.75761719 -4.20507812 24.50585938 C-4.23408203 23.34248047 -4.26308594 22.17910156 -4.29296875 20.98046875 C-4.3086792 19.90692139 -4.32438965 18.83337402 -4.34057617 17.72729492 C-4.75481388 14.79910483 -4.75481388 14.79910483 -7.3762207 13.09106445 C-9.95899141 11.72726721 -9.95899141 11.72726721 -12.6875 12.5625 C-15.35028304 14.21774351 -15.87134448 15.12786704 -17 18 C-17.27267924 20.31714432 -17.27267924 20.31714432 -17.1953125 22.765625 C-17.18886719 23.65507812 -17.18242187 24.54453125 -17.17578125 25.4609375 C-17.15902344 26.38132812 -17.14226562 27.30171875 -17.125 28.25 C-17.11597656 29.18585938 -17.10695312 30.12171875 -17.09765625 31.0859375 C-17.07413636 33.39088657 -17.04126853 35.6953116 -17 38 C-17.66 38 -18.32 38 -19 38 C-19.02912348 34.27084983 -19.04684037 30.5417291 -19.0625 26.8125 C-19.07087891 25.75740234 -19.07925781 24.70230469 -19.08789062 23.61523438 C-19.09111328 22.59365234 -19.09433594 21.57207031 -19.09765625 20.51953125 C-19.10289307 19.58214111 -19.10812988 18.64475098 -19.11352539 17.67895508 C-19.00082657 15.01950523 -18.59376649 12.59079427 -18 10 C-15.03 10.495 -15.03 10.495 -12 11 C-12 10.01 -12 9.02 -12 8 C-11.01 7.34 -10.02 6.68 -9 6 C-8.27617533 3.94074861 -8.27617533 3.94074861 -8 2 C-10.43717258 2.27034634 -10.43717258 2.27034634 -13 3 C-13.99 4.485 -13.99 4.485 -15 6 C-15.99 6 -16.98 6 -18 6 C-14.63739355 -1.75986103 -7.44926022 -1.02964534 0 0 Z " fill="#256FDF" transform="translate(270,231)"/>
<path d="M0 0 C0.74507812 0.00902344 1.49015625 0.01804688 2.2578125 0.02734375 C4.08868059 0.05081642 5.91938238 0.08668475 7.75 0.125 C7.75 0.455 7.75 0.785 7.75 1.125 C2.8 1.125 -2.15 1.125 -7.25 1.125 C-5.92082039 6.60325081 -5.92082039 6.60325081 -4.25 8.125 C-1.92182036 8.49260731 0.4118385 8.82741581 2.75 9.125 C2.75 9.455 2.75 9.785 2.75 10.125 C1.1103125 10.3415625 1.1103125 10.3415625 -0.5625 10.5625 C-4.18122987 11.00788104 -4.18122987 11.00788104 -7.25 12.125 C-7.25 13.445 -7.25 14.765 -7.25 16.125 C-0.32 16.62 -0.32 16.62 6.75 17.125 C6.42 15.475 6.09 13.825 5.75 12.125 C6.74 12.125 7.73 12.125 8.75 12.125 C8.792721 13.79111905 8.79063832 15.45882885 8.75 17.125 C6.81956314 19.05543686 3.97475198 18.25756219 1.41015625 18.26171875 C0.57355469 18.25785156 -0.26304688 18.25398438 -1.125 18.25 C-1.95386719 18.25386719 -2.78273438 18.25773437 -3.63671875 18.26171875 C-4.43464844 18.26042969 -5.23257813 18.25914062 -6.0546875 18.2578125 C-6.78671387 18.25668457 -7.51874023 18.25555664 -8.27294922 18.25439453 C-10.25 18.125 -10.25 18.125 -13.25 17.125 C-13.25 16.465 -13.25 15.805 -13.25 15.125 C-15.56 15.455 -17.87 15.785 -20.25 16.125 C-20.18998496 18.39656921 -20.10120032 20.66739274 -20 22.9375 C-19.95359375 24.20207031 -19.9071875 25.46664063 -19.859375 26.76953125 C-19.60810973 30.19818876 -19.60810973 30.19818876 -17.203125 31.82421875 C-16.55859375 32.25347656 -15.9140625 32.68273437 -15.25 33.125 C-15.25 34.445 -15.25 35.765 -15.25 37.125 C-14.59 37.455 -13.93 37.785 -13.25 38.125 C-13.25 39.115 -13.25 40.105 -13.25 41.125 C-12.26 41.125 -11.27 41.125 -10.25 41.125 C-10.58 41.785 -10.91 42.445 -11.25 43.125 C-12.24 42.795 -13.23 42.465 -14.25 42.125 C-14.25 41.465 -14.25 40.805 -14.25 40.125 C-14.91 40.125 -15.57 40.125 -16.25 40.125 C-17.50390625 38.48046875 -17.50390625 38.48046875 -18.8125 36.3125 C-19.24691406 35.60480469 -19.68132812 34.89710938 -20.12890625 34.16796875 C-23.2182447 28.53826837 -22.88088785 22.36299224 -22.25 16.125 C-20.35013482 10.19678998 -17.65208963 5.44936285 -12.25 2.125 C-11.70988281 1.76664063 -11.16976562 1.40828125 -10.61328125 1.0390625 C-7.1243248 -0.31038512 -3.68138228 -0.08455472 0 0 Z " fill="#3277E1" transform="translate(114.25,230.875)"/>
<path d="M0 0 C3 3.75 3 3.75 3 6 C7.32562039 8.2283499 10.30457378 8.1951994 15 7 C16.35368596 5.68733482 17.68799596 4.35432675 19 3 C23.62000389 1.59391186 26.57218119 2.20778762 31 4 C31 5.32 31 6.64 31 8 C30.34 8 29.68 8 29 8 C28.9175 8.5775 28.835 9.155 28.75 9.75 C27.34629228 13.96112316 24.64236592 15.65992393 20.8125 17.6875 C13.90844528 20.35196461 7.89939073 20.59181538 0.953125 17.96875 C-1.55432376 16.72505541 -3.26621909 15.18607159 -5 13 C-2.03 13.495 -2.03 13.495 1 14 C1 14.66 1 15.32 1 16 C2.98 16 4.96 16 7 16 C7 16.66 7 17.32 7 18 C12.445 16.515 12.445 16.515 18 15 C15.525 14.505 15.525 14.505 13 14 C10.99255385 13.35610218 8.99054876 12.69437747 7 12 C7 11.34 7 10.68 7 10 C5.576875 10.0928125 5.576875 10.0928125 4.125 10.1875 C3.09375 10.125625 2.0625 10.06375 1 10 C-1.56687367 6.1496895 -0.83288724 4.41430237 0 0 Z " fill="#1E6DE4" transform="translate(352,257)"/>
<path d="M0 0 C3.63 0 7.26 0 11 0 C11.14574303 4.14010989 11.28795587 8.28032347 11.42724609 12.4206543 C11.47483754 13.82172721 11.52330459 15.22277072 11.57275391 16.6237793 C12.47178942 42.15455323 12.47178942 42.15455323 11.5 53.9375 C11.4071875 55.10152344 11.314375 56.26554687 11.21875 57.46484375 C11.1465625 58.30144531 11.074375 59.13804687 11 60 C7.7 59.67 4.4 59.34 1 59 C0.86532121 55.56120157 0.76604209 52.1276436 0.6875 48.6875 C0.64560547 47.71103516 0.60371094 46.73457031 0.56054688 45.72851562 C0.51479316 43.06564944 0.52665088 40.62158154 1 38 C3.33203125 35.76953125 3.33203125 35.76953125 6 35 C6.99 35.33 7.98 35.66 9 36 C9.33 37.32 9.66 38.64 10 40 C10 27.13 10 14.26 10 1 C6.7 1 3.4 1 0 1 C0 0.67 0 0.34 0 0 Z " fill="#0E61E0" transform="translate(75,214)"/>
<path d="M0 0 C2.64 1.32 5.28 2.64 8 4 C8 4.66 8 5.32 8 6 C10.64 5.67 13.28 5.34 16 5 C16 5.66 16 6.32 16 7 C16.9590625 7.2165625 16.9590625 7.2165625 17.9375 7.4375 C20 8 20 8 21 9 C21.07313567 11.53049402 21.09247527 14.03304837 21.0625 16.5625 C21.05798828 17.27341797 21.05347656 17.98433594 21.04882812 18.71679688 C21.03700864 20.47790013 21.01907263 22.23896036 21 24 C18.23735711 24.59732819 15.83967231 25 13 25 C12.63495397 23.41913952 12.28339494 21.83516093 11.9375 20.25 C11.74027344 19.36828125 11.54304688 18.4865625 11.33984375 17.578125 C11.00174128 15.01320972 11.18841365 13.42908361 12 11 C10.72125 11 9.4425 11 8.125 11 C4.41666667 11 0.70833333 11 -3 11 C-3 7.88772805 -2.54372951 5.05847848 -2 2 C-1.34 2 -0.68 2 0 2 C0 1.34 0 0.68 0 0 Z " fill="#0D65E7" transform="translate(402,246)"/>
<path d="M0 0 C0.66 0 1.32 0 2 0 C2 0.66 2 1.32 2 2 C2.66 2.33 3.32 2.66 4 3 C3.96519531 4.25103516 3.96519531 4.25103516 3.9296875 5.52734375 C3.83077862 11.69501903 4.0652328 17.1654374 5.6171875 23.1328125 C6.35816362 26.74696132 5.13314466 29.60056601 4 33 C2.68 33 1.36 33 0 33 C0 32.34 0 31.68 0 31 C-0.99 31.33 -1.98 31.66 -3 32 C-5.57996518 26.12905562 -5.22552426 20.40390015 -5.125 14.125 C-5.11597656 13.05507812 -5.10695313 11.98515625 -5.09765625 10.8828125 C-5.07419342 8.25497561 -5.04136459 5.62760594 -5 3 C-4.360625 2.87625 -3.72125 2.7525 -3.0625 2.625 C-2.0415625 2.315625 -2.0415625 2.315625 -1 2 C-0.67 1.34 -0.34 0.68 0 0 Z " fill="#0C67E9" transform="translate(442,240)"/>
<path d="M0 0 C0.33 0.66 0.66 1.32 1 2 C2.65 2 4.3 2 6 2 C6.02505615 2.58491211 6.0501123 3.16982422 6.07592773 3.77246094 C6.19222962 6.43184471 6.31480067 9.09090403 6.4375 11.75 C6.47681641 12.67039063 6.51613281 13.59078125 6.55664062 14.5390625 C6.61948242 15.87324219 6.61948242 15.87324219 6.68359375 17.234375 C6.72025146 18.05131836 6.75690918 18.86826172 6.79467773 19.70996094 C6.99134275 21.9034423 7.40300594 23.88396413 8 26 C7.01 26 6.02 26 5 26 C5 28.31 5 30.62 5 33 C4.01 33 3.02 33 2 33 C1.01 31.02 0.02 29.04 -1 27 C-1.99 27 -2.98 27 -4 27 C-4 19.41 -4 11.82 -4 4 C-3.34 4 -2.68 4 -2 4 C-1.34 2.68 -0.68 1.36 0 0 Z " fill="#0C63E5" transform="translate(219,240)"/>
<path d="M0 0 C1.794375 0.144375 3.58875 0.28875 5.4375 0.4375 C6.95150391 0.55931641 6.95150391 0.55931641 8.49609375 0.68359375 C11 1 11 1 12 2 C12.09854655 3.64340867 12.12972411 5.2911461 12.125 6.9375 C12.12886719 8.28134766 12.12886719 8.28134766 12.1328125 9.65234375 C12 12 12 12 11 14 C12.65 14 14.3 14 16 14 C16 14.33 16 14.66 16 15 C14.56260487 15.02712066 13.12506137 15.04645067 11.6875 15.0625 C10.48673828 15.07990234 10.48673828 15.07990234 9.26171875 15.09765625 C7 15 7 15 4 14 C3.67 16.97 3.34 19.94 3 23 C0.03 23 -2.94 23 -6 23 C-6 19.37 -6 15.74 -6 12 C-4.02 12 -2.04 12 0 12 C0 8.04 0 4.08 0 0 Z " fill="#1C6AE3" transform="translate(213,219)"/>
<path d="M0 0 C1.45792884 -0.05399736 2.91642712 -0.09279177 4.375 -0.125 C5.18710938 -0.14820313 5.99921875 -0.17140625 6.8359375 -0.1953125 C9 0 9 0 11 2 C10.49649058 6.86725769 7.67048498 10.32951502 4.3125 13.6875 C-1.26040624 18.0387593 -7.11014026 18.31746486 -13.921875 17.484375 C-16.17393233 16.95945938 -17.9791605 16.11055144 -20 15 C-19.00419922 15.01740234 -19.00419922 15.01740234 -17.98828125 15.03515625 C-11.38629268 15.28848391 -11.38629268 15.28848391 -5 14 C-3.17662247 12.0431712 -3.17662247 12.0431712 -2 10 C-2.7425 10.04125 -3.485 10.0825 -4.25 10.125 C-7.08758952 9.99601866 -8.58773938 9.42948778 -11 8 C-10.67 7.34 -10.34 6.68 -10 6 C-7.67843403 5.59270772 -5.3431213 5.25561323 -3 5 C-2.67 4.01 -2.34 3.02 -2 2 C-1.34 2 -0.68 2 0 2 C0 1.34 0 0.68 0 0 Z " fill="#0F63E9" transform="translate(124,259)"/>
<path d="M0 0 C4.62 0 9.24 0 14 0 C17.20319037 3.93118819 18.96850075 6.567638 21 11 C21.79870195 12.36235047 22.60872485 13.71823241 23.4375 15.0625 C25 18 25 18 25 20 C22.6875 19.625 22.6875 19.625 20 18 C18.62425447 14.75410038 17.77907956 11.43301724 17 8 C16.34 8 15.68 8 15 8 C15 7.01 15 6.02 15 5 C14.34 5 13.68 5 13 5 C12.34 5.66 11.68 6.32 11 7 C11 5.68 11 4.36 11 3 C8.36 2.67 5.72 2.34 3 2 C3.00666183 2.72218719 3.01332367 3.44437439 3.02018738 4.18844604 C3.08024036 10.98663109 3.12594472 17.78477662 3.15543652 24.58315849 C3.17110825 28.07850309 3.19237331 31.57362896 3.22631836 35.06884766 C3.26507941 39.08498258 3.27969664 43.10088691 3.29296875 47.1171875 C3.30845261 48.37554413 3.32393646 49.63390076 3.33988953 50.9303894 C3.34011612 52.09144196 3.34034271 53.25249451 3.34057617 54.44873047 C3.34723801 55.47465302 3.35389984 56.50057556 3.36076355 57.55758667 C3.24171158 58.36358307 3.12265961 59.16957947 3 60 C2.01 60.66 1.02 61.32 0 62 C0 41.54 0 21.08 0 0 Z " fill="#5086EC" transform="translate(284,213)"/>
<path d="M0 0 C0.763125 0.309375 1.52625 0.61875 2.3125 0.9375 C4.18789677 1.67893593 6.08684652 2.36228217 8 3 C10 6 10 6 9.625 8.1875 C9.315625 9.0846875 9.315625 9.0846875 9 10 C9 9.34 9 8.68 9 8 C8.34 8 7.68 8 7 8 C7 7.34 7 6.68 7 6 C6.34 6.66 5.68 7.32 5 8 C5.99 8.66 6.98 9.32 8 10 C8 10.99 8 11.98 8 13 C9.32 13.33 10.64 13.66 12 14 C12.33 15.65 12.66 17.3 13 19 C3.43 19 -6.14 19 -16 19 C-12.13209997 17.06604999 -10.8499541 16.76710647 -6.75 16.875 C-5.85796875 16.89304688 -4.9659375 16.91109375 -4.046875 16.9296875 C-3.37140625 16.95289063 -2.6959375 16.97609375 -2 17 C-2.66 16.67 -3.32 16.34 -4 16 C-4 15.34 -4 14.68 -4 14 C-2.68 14 -1.36 14 0 14 C0 13.34 0 12.68 0 12 C0.66 12 1.32 12 2 12 C1.33735914 5.93735778 1.33735914 5.93735778 0 0 Z M-10 14 C-9.34 14.33 -8.68 14.66 -8 15 C-8.99 15 -9.98 15 -11 15 C-10.67 14.67 -10.34 14.34 -10 14 Z " fill="#0D66EC" transform="translate(370,236)"/>
<path d="M0 0 C0.433125 0.598125 0.86625 1.19625 1.3125 1.8125 C4.95098386 6.52905315 8.10195178 8.84916132 14 10 C16.3125 11.0625 16.3125 11.0625 18 12 C17.34 13.65 16.68 15.3 16 17 C10.31302429 17.91397824 5.68697571 17.91397824 0 17 C0 16.34 0 15.68 0 15 C-0.99 15 -1.98 15 -3 15 C-3.33 14.01 -3.66 13.02 -4 12 C-3.34 11.67 -2.68 11.34 -2 11 C-2.226875 10.29875 -2.45375 9.5975 -2.6875 8.875 C-3.09532639 5.12299725 -1.86377293 3.20568943 0 0 Z " fill="#0E66E7" transform="translate(104,257)"/>
<path d="M0 0 C0.33 0.66 0.66 1.32 1 2 C1.66 2 2.32 2 3 2 C3.79275148 3.4160599 4.58415312 4.83287553 5.375 6.25 C5.81585938 7.03890625 6.25671875 7.8278125 6.7109375 8.640625 C7.85747823 10.73914197 8.94649552 12.8536077 10 15 C10.66 14.01 11.32 13.02 12 12 C13.125 18.75 13.125 18.75 12 21 C10.68 20.67 9.36 20.34 8 20 C8 18.35 8 16.7 8 15 C7.01 15 6.02 15 5 15 C5.185625 15.515625 5.37125 16.03125 5.5625 16.5625 C6 19 6 19 5.4375 22.5 C4.97582113 26.19343096 5.30114767 26.92083015 7 30 C6.5625 32.11328125 6.5625 32.11328125 6 34 C5.52691406 33.22398437 5.05382812 32.44796875 4.56640625 31.6484375 C0.42051104 24.87600049 -3.79323891 18.156133 -8.11694336 11.49560547 C-10.90128724 7.19742553 -10.90128724 7.19742553 -12 5 C-8.67187429 5.57381478 -7.30157545 6.59380748 -5 9 C-4.34 9 -3.68 9 -3 9 C-2.67 11.31 -2.34 13.62 -2 16 C-1.34 15.67 -0.68 15.34 0 15 C0.66 16.65 1.32 18.3 2 20 C2.66 20 3.32 20 4 20 C3.814375 19.0925 3.62875 18.185 3.4375 17.25 C3 14 3 14 3.625 11.8125 C3.74875 11.214375 3.8725 10.61625 4 10 C3.54625 9.566875 3.0925 9.13375 2.625 8.6875 C0.16492026 6.13280181 0.32350286 3.42913029 0 0 Z " fill="#3670DD" transform="translate(309,233)"/>
<path d="M0 0 C0.33 0 0.66 0 1 0 C1 19.47 1 38.94 1 59 C3.97 59 6.94 59 10 59 C10 46.79 10 34.58 10 22 C11.32 21.34 12.64 20.68 14 20 C14.33 21.65 14.66 23.3 15 25 C14.01 24.67 13.02 24.34 12 24 C12.33 36.21 12.66 48.42 13 61 C8.71 61 4.42 61 0 61 C0 40.87 0 20.74 0 0 Z " fill="#1C56C3" transform="translate(285,214)"/>
<path d="M0 0 C0.33 1.32 0.66 2.64 1 4 C0.34 4 -0.32 4 -1 4 C-1 4.99 -1 5.98 -1 7 C-1.66 7 -2.32 7 -3 7 C-3.33 7.99 -3.66 8.98 -4 10 C-4.99 10.495 -4.99 10.495 -6 11 C-6.65213292 13.02463255 -6.65213292 13.02463255 -7 15 C-6.34 15.33 -5.68 15.66 -5 16 C-8.53878028 17.76939014 -12.2431075 16.86071221 -16 16 C-20.62826547 14.02259865 -24.17931088 12.23103368 -27 8 C-27 7.01 -27 6.02 -27 5 C-26.34 5 -25.68 5 -25 5 C-24.67 4.01 -24.34 3.02 -24 2 C-23.01 3.32 -22.02 4.64 -21 6 C-21.99 7.485 -21.99 7.485 -23 9 C-18.89776415 10.01540112 -18.89776415 10.01540112 -15 9 C-15 9.99 -15 10.98 -15 12 C-13.35920758 10.35920758 -13.39887658 8.22231235 -13 6 C-11.948125 5.87625 -10.89625 5.7525 -9.8125 5.625 C-6.5092497 5.08348356 -3.94418983 4.55868873 -1 3 C-0.67 2.01 -0.34 1.02 0 0 Z " fill="#226ADA" transform="translate(169,260)"/>
<path d="M0 0 C7.87354662 0.80415796 14.89108338 1.59657506 21 7 C23.22698735 10.34048103 23.2711921 11.53285581 23.25 15.4375 C23.25515625 16.38496094 23.2603125 17.33242188 23.265625 18.30859375 C22.99748089 21.02552453 22.38531142 22.67465583 21 25 C20.34 25 19.68 25 19 25 C19 25.66 19 26.32 19 27 C9.24882351 31.56004913 2.26263356 31.9854934 -8 29 C-7.67 28.34 -7.34 27.68 -7 27 C-5.98679687 27.09539062 -4.97359375 27.19078125 -3.9296875 27.2890625 C-2.57817872 27.40168823 -1.22661293 27.51363114 0.125 27.625 C0.79015625 27.68945312 1.4553125 27.75390625 2.140625 27.8203125 C6.57387663 28.16801851 9.93021428 27.8184149 14 26 C14.33 25.34 14.66 24.68 15 24 C16.32 23.67 17.64 23.34 19 23 C19 18.38 19 13.76 19 9 C17.68 8.34 16.36 7.68 15 7 C15 6.34 15 5.68 15 5 C12.36 5.33 9.72 5.66 7 6 C7 5.34 7 4.68 7 4 C6.21625 3.71125 5.4325 3.4225 4.625 3.125 C2 2 2 2 0 0 Z " fill="#477CDA" transform="translate(403,246)"/>
<path d="M0 0 C2.75026417 -0.05404449 5.49946203 -0.09369306 8.25 -0.125 C9.02730469 -0.14175781 9.80460937 -0.15851563 10.60546875 -0.17578125 C17.72431144 -0.23662606 17.72431144 -0.23662606 21 2 C21 2.66 21 3.32 21 4 C21.5775 4.20625 22.155 4.4125 22.75 4.625 C27.67638367 7.6355678 29.40927119 12.52112216 30.703125 17.875 C31.07810588 20.55907368 31 23.28985938 31 26 C20.77 26 10.54 26 0 26 C0 25.67 0 25.34 0 25 C9.9 25 19.8 25 30 25 C30 23.68 30 22.36 30 21 C29.34 21 28.68 21 28 21 C28 20.34 28 19.68 28 19 C27.38125 18.896875 26.7625 18.79375 26.125 18.6875 C22.81936257 17.61802907 21.87750643 14.81625965 20 12 C20.99 11.67 21.98 11.34 23 11 C23 11.66 23 12.32 23 13 C23.66 13 24.32 13 25 13 C24.67 11.35 24.34 9.7 24 8 C23.236875 7.87625 22.47375 7.7525 21.6875 7.625 C19 7 19 7 16 5 C16.33 6.65 16.66 8.3 17 10 C15.35 9.67 13.7 9.34 12 9 C12.33 8.01 12.66 7.02 13 6 C13.66 6 14.32 6 15 6 C15.33 4.35 15.66 2.7 16 1 C10.72 1 5.44 1 0 1 C0 0.67 0 0.34 0 0 Z " fill="#3675D9" transform="translate(354,231)"/>
<path d="M0 0 C0 3.63 0 7.26 0 11 C-5.28 11 -10.56 11 -16 11 C-19 4 -19 4 -18 1 C-15.10067643 3.39509338 -14.49831724 5.31245243 -14 9 C-13.01 9 -12.02 9 -11 9 C-11 6.69 -11 4.38 -11 2 C-10.01 2 -9.02 2 -8 2 C-8 1.34 -8 0.68 -8 0 C-5 -1 -5 -1 0 0 Z " fill="#0F64E0" transform="translate(235,264)"/>
<path d="M0 0 C0.99 0.33 1.98 0.66 3 1 C3 15.52 3 30.04 3 45 C-1.29 45 -5.58 45 -10 45 C-10.33 44.01 -10.66 43.02 -11 42 C-10.01 42 -9.02 42 -8 42 C-8 42.66 -8 43.32 -8 44 C-4.7 44 -1.4 44 2 44 C2 30.47 2 16.94 2 3 C-1.3 3 -4.6 3 -8 3 C-8 4.32 -8 5.64 -8 7 C-9.65 7.33 -11.3 7.66 -13 8 C-13.66 6.35 -14.32 4.7 -15 3 C-19.29 3 -23.58 3 -28 3 C-28 2.34 -28 1.68 -28 1 C-25.75026553 0.945862 -23.50015617 0.90714509 -21.25 0.875 C-19.99703125 0.85179687 -18.7440625 0.82859375 -17.453125 0.8046875 C-14.27179508 0.98462698 -12.63478104 1.31001418 -10 3 C-10 2.34 -10 1.68 -10 1 C-6.85658007 -0.57170996 -3.44228549 -0.23175783 0 0 Z " fill="#3F71CA" transform="translate(180,230)"/>
<path d="M0 0 C4.29 0 8.58 0 13 0 C13 8.58 13 17.16 13 26 C20.59 26 28.18 26 36 26 C35.01 26.495 35.01 26.495 34 27 C33.61781233 28.65614657 33.28604898 30.32457024 33 32 C32.505 32.99 32.505 32.99 32 34 C30.68 34 29.36 34 28 34 C28 33.34 28 32.68 28 32 C27.34 31.67 26.68 31.34 26 31 C26 30.01 26 29.02 26 28 C19.07 27.505 19.07 27.505 12 27 C12 18.42 12 9.84 12 1 C8.37 1 4.74 1 1 1 C1 11.23 1 21.46 1 32 C0.34 32 -0.32 32 -1 32 C-1.0247345 27.92489562 -1.04287637 23.84982036 -1.05493164 19.7746582 C-1.05995777 18.38858275 -1.06677966 17.00251259 -1.07543945 15.61645508 C-1.08758018 13.62323285 -1.09271021 11.62997181 -1.09765625 9.63671875 C-1.10289307 8.43748779 -1.10812988 7.23825684 -1.11352539 6.00268555 C-1 3 -1 3 0 0 Z " fill="#3D7ADC" transform="translate(38,213)"/>
<path d="M0 0 C0.33 0 0.66 0 1 0 C1 8.58 1 17.16 1 26 C3.97 26.33 6.94 26.66 10 27 C9.99476318 26.30849854 9.98952637 25.61699707 9.98413086 24.90454102 C9.963425 21.79053648 9.95036037 18.67654639 9.9375 15.5625 C9.92912109 14.47388672 9.92074219 13.38527344 9.91210938 12.26367188 C9.90888672 11.22919922 9.90566406 10.19472656 9.90234375 9.12890625 C9.89710693 8.17056885 9.89187012 7.21223145 9.88647461 6.22485352 C10 4 10 4 11 3 C12.78071246 2.91273777 14.5648314 2.89300959 16.34765625 2.90234375 C17.42724609 2.90556641 18.50683594 2.90878906 19.61914062 2.91210938 C21.32360352 2.92467773 21.32360352 2.92467773 23.0625 2.9375 C24.77276367 2.94426758 24.77276367 2.94426758 26.51757812 2.95117188 C29.34510351 2.96300253 32.1725264 2.9794859 35 3 C35 3.33 35 3.66 35 4 C27.41 4 19.82 4 12 4 C12 12.25 12 20.5 12 29 C7.38 29 2.76 29 -2 29 C-2 24.71 -2 20.42 -2 16 C-1.67 16 -1.34 16 -1 16 C-0.67 10.72 -0.34 5.44 0 0 Z " fill="#3D73D6" transform="translate(39,246)"/>
<path d="M0 0 C2.77141717 -0.08089542 5.54047819 -0.14044062 8.3125 -0.1875 C9.09818359 -0.21263672 9.88386719 -0.23777344 10.69335938 -0.26367188 C11.45068359 -0.27333984 12.20800781 -0.28300781 12.98828125 -0.29296875 C14.03302612 -0.31653442 14.03302612 -0.31653442 15.09887695 -0.34057617 C17.61259262 0.10974274 18.50558343 0.95730433 20 3 C19.6875 6.1875 19.6875 6.1875 19 9 C18.34 9 17.68 9 17 9 C17 8.34 17 7.68 17 7 C15.06325815 6.80482446 13.12555991 6.61912127 11.1875 6.4375 C10.10855469 6.33308594 9.02960938 6.22867188 7.91796875 6.12109375 C4.93517546 5.82422391 4.93517546 5.82422391 2 7 C1.01 6.34 0.02 5.68 -1 5 C-1.99 5 -2.98 5 -4 5 C-3.34 4.01 -2.68 3.02 -2 2 C-1.34 2 -0.68 2 0 2 C0 1.34 0 0.68 0 0 Z " fill="#0C67E9" transform="translate(399,233)"/>
<path d="M0 0 C2 3 2 3 2 5 C4.38564077 4.42415568 6.66682784 3.77772405 9 3 C11.1875 3.4375 11.1875 3.4375 13 4 C13 3.01 13 2.02 13 1 C13.99 1 14.98 1 16 1 C14.84826645 3.46800047 13.95216435 5.04783565 12 7 C11.6796478 9.76085062 11.6796478 9.76085062 11.75 12.875 C11.74484375 13.92429688 11.7396875 14.97359375 11.734375 16.0546875 C11.9924236 18.91599111 12.5225551 20.57276909 14 23 C12.68 22.67 11.36 22.34 10 22 C10 17.38 10 12.76 10 8 C8.68 7.67 7.36 7.34 6 7 C5.87625 8.27875 5.7525 9.5575 5.625 10.875 C5.25 14.75 5.25 14.75 3 17 C2 14 2 14 2 11 C1.01 10.67 0.02 10.34 -1 10 C-1 14.29 -1 18.58 -1 23 C-1.33 23 -1.66 23 -2 23 C-3.00415021 14.49496867 -3.42317006 7.94175454 0 0 Z " fill="#3479E2" transform="translate(141,240)"/>
<path d="M0 0 C0.66 0 1.32 0 2 0 C2 1.32 2 2.64 2 4 C3.2375 3.95875 4.475 3.9175 5.75 3.875 C9.15721082 3.86306581 10.97781803 4.44016414 14 6 C16.33203812 6.0777346 18.66839059 6.08967728 21 6 C22.125 10.75 22.125 10.75 21 13 C18.55764178 12.99399174 16.12806579 12.94671543 13.6875 12.875 C12.99720703 12.87757813 12.30691406 12.88015625 11.59570312 12.8828125 C9.57421875 12.8046875 9.57421875 12.8046875 6 12 C4.14453125 9.0078125 4.14453125 9.0078125 3 6 C2.34 5.67 1.68 5.34 1 5 C0.375 2.4375 0.375 2.4375 0 0 Z " fill="#0C65EA" transform="translate(390,262)"/>
<path d="M0 0 C1.32 0.33 2.64 0.66 4 1 C4 1.66 4 2.32 4 3 C4.66 3 5.32 3 6 3 C8.56616632 6.84924948 8.55097676 9.4349304 9 14 C5.04 14 1.08 14 -3 14 C-3.33 12.68 -3.66 11.36 -4 10 C-6.97 9.67 -9.94 9.34 -13 9 C-12.67 8.01 -12.34 7.02 -12 6 C-6.06 6.99 -6.06 6.99 0 8 C0 8.66 0 9.32 0 10 C0.66 10 1.32 10 2 10 C1.67 9.01 1.34 8.02 1 7 C1 5.68 1 4.36 1 3 C0.67 2.01 0.34 1.02 0 0 Z " fill="#437FDE" transform="translate(416,232)"/>
<path d="M0 0 C4.29 0 8.58 0 13 0 C13 20.46 13 40.92 13 62 C8.38 62 3.76 62 -1 62 C-1.66 60.68 -2.32 59.36 -3 58 C-2.01 58.309375 -1.02 58.61875 0 58.9375 C4.04962954 60.20300923 7.5860089 60.44825111 12 61 C12 41.53 12 22.06 12 2 C8.37 2 4.74 2 1 2 C1 2.99 1 3.98 1 5 C0.34 5 -0.32 5 -1 5 C-0.67 3.35 -0.34 1.7 0 0 Z " fill="#3A6FC8" transform="translate(321,213)"/>
<path d="M0 0 C2.31 0.66 4.62 1.32 7 2 C7 3.32 7 4.64 7 6 C6.34 6 5.68 6 5 6 C4.9175 6.5775 4.835 7.155 4.75 7.75 C3.34629228 11.96112316 0.64236592 13.65992393 -3.1875 15.6875 C-10.09155472 18.35196461 -16.10060927 18.59181538 -23.046875 15.96875 C-25.55432376 14.72505541 -27.26621909 13.18607159 -29 11 C-26.03 11.495 -26.03 11.495 -23 12 C-23 12.66 -23 13.32 -23 14 C-21.02 14 -19.04 14 -17 14 C-17 14.66 -17 15.32 -17 16 C-16.22914063 15.84402344 -15.45828125 15.68804687 -14.6640625 15.52734375 C-13.66117187 15.33269531 -12.65828125 15.13804687 -11.625 14.9375 C-10.62726563 14.74027344 -9.62953125 14.54304688 -8.6015625 14.33984375 C-6 14 -6 14 -4 15 C-4 14.34 -4 13.68 -4 13 C-3.01 13 -2.02 13 -1 13 C-1.20625 12.38125 -1.4125 11.7625 -1.625 11.125 C-1.74875 10.42375 -1.8725 9.7225 -2 9 C-1.34 8.34 -0.68 7.68 0 7 C0.99 7.33 1.98 7.66 3 8 C2.67 7.01 2.34 6.02 2 5 C1.34 4.67 0.68 4.34 0 4 C0 2.68 0 1.36 0 0 Z " fill="#5184D6" transform="translate(376,259)"/>
<path d="M0 0 C0.66 0 1.32 0 2 0 C2.33 1.32 2.66 2.64 3 4 C5.97 4.495 5.97 4.495 9 5 C9 5.66 9 6.32 9 7 C9.69867188 7.03738281 10.39734375 7.07476562 11.1171875 7.11328125 C12.48230469 7.21189453 12.48230469 7.21189453 13.875 7.3125 C14.77992188 7.37050781 15.68484375 7.42851562 16.6171875 7.48828125 C19 8 19 8 21 11 C16.8803623 12.29243536 13.33168317 13.26252625 9 13 C9 12.34 9 11.68 9 11 C7.02 11 5.04 11 3 11 C3 10.34 3 9.68 3 9 C2.01 9 1.02 9 0 9 C0 8.01 0 7.02 0 6 C-0.66 6 -1.32 6 -2 6 C-1.49396008 3.83125748 -1.00016187 2.00032373 0 0 Z " fill="#0B66EB" transform="translate(350,262)"/>
<path d="M0 0 C2.54232342 -0.08152344 5.08199202 -0.14073716 7.625 -0.1875 C8.33785156 -0.21263672 9.05070312 -0.23777344 9.78515625 -0.26367188 C14.62276416 -0.33024446 17.74738338 0.44440547 22 3 C21.67 3.66 21.34 4.32 21 5 C18.5625 4.625 18.5625 4.625 16 4 C15.67 3.34 15.34 2.68 15 2 C12.67843403 1.59270772 10.3431213 1.25561323 8 1 C8 1.66 8 2.32 8 3 C9.98 3.66 11.96 4.32 14 5 C14 8 14 8 12 11 C11.34 10.67 10.68 10.34 10 10 C10 9.34 10 8.68 10 8 C8.88625 8.020625 7.7725 8.04125 6.625 8.0625 C3 8 3 8 1 7 C0.67 7.66 0.34 8.32 0 9 C-0.33 7.35 -0.66 5.7 -1 4 C-0.34 4 0.32 4 1 4 C0.67 2.68 0.34 1.36 0 0 Z " fill="#1E6AE1" transform="translate(107,232)"/>
<path d="M0 0 C2.64 0 5.28 0 8 0 C8 3.3 8 6.6 8 10 C5.75026553 10.054138 3.50015617 10.09285491 1.25 10.125 C-0.00296875 10.14820313 -1.2559375 10.17140625 -2.546875 10.1953125 C-5.72820492 10.01537302 -7.36521896 9.68998582 -10 8 C-9.67 7.34 -9.34 6.68 -9 6 C-8.01 6 -7.02 6 -6 6 C-6 6.66 -6 7.32 -6 8 C-4.68 8 -3.36 8 -2 8 C-1.855625 7.4225 -1.71125 6.845 -1.5625 6.25 C-1.04166667 4.16666667 -0.52083333 2.08333333 0 0 Z " fill="#1563DA" transform="translate(448,265)"/>
<path d="M0 0 C1.32 0.33 2.64 0.66 4 1 C4 4.96 4 8.92 4 13 C2.68 12.67 1.36 12.34 0 12 C-2.00946222 12.27050453 -4.01354224 12.59367909 -6 13 C-5.67 14.32 -5.34 15.64 -5 17 C-5.66 16.67 -6.32 16.34 -7 16 C-7 11.71 -7 7.42 -7 3 C-5.68 2.67 -4.36 2.34 -3 2 C-2 5 -2 5 -2 8 C-1.34 5.36 -0.68 2.72 0 0 Z " fill="#0D64E4" transform="translate(147,247)"/>
<path d="M0 0 C2.97 0 5.94 0 9 0 C9 3.96 9 7.92 9 12 C4.545 12.495 4.545 12.495 0 13 C-0.02705308 15.41674224 -0.04686438 17.8331794 -0.0625 20.25 C-0.07087891 20.93191406 -0.07925781 21.61382812 -0.08789062 22.31640625 C-0.10428392 25.69342554 -0.05628768 28.77291639 1 32 C1.94875 31.979375 2.8975 31.95875 3.875 31.9375 C7 32 7 32 9 33 C9 36.63 9 40.26 9 44 C8.67 44 8.34 44 8 44 C8 40.7 8 37.4 8 34 C5.03 34 2.06 34 -1 34 C-2.99778577 26.63316497 -3.48819734 19.62950257 -3 12 C-2 11 -2 11 0.28515625 10.90234375 C2.85677083 10.93489583 5.42838542 10.96744792 8 11 C8 7.7 8 4.4 8 1 C5.36 1 2.72 1 0 1 C0 0.67 0 0.34 0 0 Z " fill="#7CA6E6" transform="translate(448,231)"/>
<path d="M0 0 C0.99 0.495 0.99 0.495 2 1 C2 4.63 2 8.26 2 12 C4.97 12 7.94 12 11 12 C11 15.96 11 19.92 11 24 C8.03 24 5.06 24 2 24 C2 30.27 2 36.54 2 43 C1.67 43 1.34 43 1 43 C1 36.07 1 29.14 1 22 C3.64 22 6.28 22 9 22 C9 19.36 9 16.72 9 14 C6.03 14 3.06 14 0 14 C0 9.38 0 4.76 0 0 Z " fill="#789EE7" transform="translate(224,219)"/>
<path d="M0 0 C0.66 0 1.32 0 2 0 C2 7.59 2 15.18 2 23 C4.97 23 7.94 23 11 23 C11.33 18.71 11.66 14.42 12 10 C12.33 10 12.66 10 13 10 C13 14.95 13 19.9 13 25 C8.38 25 3.76 25 -1 25 C-0.67 16.75 -0.34 8.5 0 0 Z " fill="#447AD8" transform="translate(74,250)"/>
<path d="M0 0 C2.97 0.495 2.97 0.495 6 1 C4.68 1.33 3.36 1.66 2 2 C2 4.64 2 7.28 2 10 C3.98 10 5.96 10 8 10 C8 17.59 8 25.18 8 33 C7.34 33 6.68 33 6 33 C5.67 26.4 5.34 19.8 5 13 C3.35 12.67 1.7 12.34 0 12 C0 8.04 0 4.08 0 0 Z " fill="#628DD7" transform="translate(428,231)"/>
<path d="M0 0 C0.99 1.98 1.98 3.96 3 6 C2.01 7.32 1.02 8.64 0 10 C0.99 10.99 1.98 11.98 3 13 C1.35 13.33 -0.3 13.66 -2 14 C-2.33 19.94 -2.66 25.88 -3 32 C-3.33 32 -3.66 32 -4 32 C-4 21.77 -4 11.54 -4 1 C-2 0 -2 0 0 0 Z " fill="#236EE5" transform="translate(270,240)"/>
<path d="M0 0 C0.66 0 1.32 0 2 0 C2 2.64 2 5.28 2 8 C-14.335 8.495 -14.335 8.495 -31 9 C-30.67 8.01 -30.34 7.02 -30 6 C-20.1 6 -10.2 6 0 6 C0 4.02 0 2.04 0 0 Z " fill="#4577D6" transform="translate(134,249)"/>
<path d="M0 0 C0.433125 0.598125 0.86625 1.19625 1.3125 1.8125 C2.77989559 3.71467946 4.26869038 5.34396471 6 7 C6.66 7.66 7.32 8.32 8 9 C7.195625 9.28875 6.39125 9.5775 5.5625 9.875 C2.8673532 10.73262568 2.8673532 10.73262568 2 13 C2.39938767 15.09821215 2.39938767 15.09821215 3 17 C2.01 17 1.02 17 0 17 C0 16.34 0 15.68 0 15 C-0.99 15 -1.98 15 -3 15 C-3.33 14.01 -3.66 13.02 -4 12 C-3.34 11.67 -2.68 11.34 -2 11 C-2.226875 10.29875 -2.45375 9.5975 -2.6875 8.875 C-3.09532639 5.12299725 -1.86377293 3.20568943 0 0 Z " fill="#0F62E0" transform="translate(104,257)"/>
<path d="M0 0 C1.60080151 4.00200378 0.29279692 7.04556236 -1 11 C0.32 11.33 1.64 11.66 3 12 C3.33 14.31 3.66 16.62 4 19 C4.99 19 5.98 19 7 19 C7.33 18.01 7.66 17.02 8 16 C9 19 9 19 8 22 C2.25 20.125 2.25 20.125 0 19 C0 18.34 0 17.68 0 17 C-0.66 17 -1.32 17 -2 17 C-3.75179535 11.74461396 -3.64761951 7.51111219 -1.5 2.5 C-1.005 1.675 -0.51 0.85 0 0 Z " fill="#2C70DC" transform="translate(391,235)"/>
<path d="M0 0 C0.66 0 1.32 0 2 0 C2 0.66 2 1.32 2 2 C2.66 2 3.32 2 4 2 C4 2.66 4 3.32 4 4 C4.66 4 5.32 4 6 4 C6.33 3.34 6.66 2.68 7 2 C9.46277641 7.13078418 10 8.92485609 10 15 C-0.23 15 -10.46 15 -21 15 C-21 14.67 -21 14.34 -21 14 C-11.1 14 -1.2 14 9 14 C9 12.68 9 11.36 9 10 C8.34 10 7.68 10 7 10 C7 9.34 7 8.68 7 8 C6.38125 7.896875 5.7625 7.79375 5.125 7.6875 C1.81936257 6.61802907 0.87750643 3.81625965 -1 1 C-0.67 0.67 -0.34 0.34 0 0 Z " fill="#4E86E0" transform="translate(375,242)"/>
<path d="M0 0 C1.32 0.33 2.64 0.66 4 1 C2.47839473 5.10833423 -0.36380147 7.71024305 -4 10 C-9.5502813 12.38369976 -15.16701947 12.35956689 -21 11 C-22.35323266 10.37471319 -23.69356603 9.7179502 -25 9 C-24.3709375 9.01160156 -23.741875 9.02320313 -23.09375 9.03515625 C-18.83834509 9.08001745 -14.71786319 9.04226715 -10.5 8.4375 C-7 8 -7 8 -5 9 C-4.9175 8.38125 -4.835 7.7625 -4.75 7.125 C-4 5 -4 5 -1.9375 3.75 C-1.298125 3.5025 -0.65875 3.255 0 3 C0 2.01 0 1.02 0 0 Z " fill="#5F8EDC" transform="translate(129,265)"/>
<path d="M0 0 C0.33 0 0.66 0 1 0 C1 13.53 1 27.06 1 41 C-2.3 41 -5.6 41 -9 41 C-9 40.34 -9 39.68 -9 39 C-12.11785113 39.64644661 -12.11785113 39.64644661 -13 42 C-14.32 41.67 -15.64 41.34 -17 41 C-16.67 40.01 -16.34 39.02 -16 38 C-10.25 36.875 -10.25 36.875 -8 38 C-8 38.66 -8 39.32 -8 40 C-5.36 40 -2.72 40 0 40 C0 26.8 0 13.6 0 0 Z " fill="#246CDA" transform="translate(181,233)"/>
<path d="M0 0 C1.89201027 3.78402055 0.82912906 8.56353959 0.64453125 12.71484375 C0.62559438 16.08109302 0.62559438 16.08109302 3.01171875 17.69140625 C3.99591797 18.33916016 3.99591797 18.33916016 5 19 C5 20.32 5 21.64 5 23 C5.66 23.33 6.32 23.66 7 24 C7 24.99 7 25.98 7 27 C7.99 27 8.98 27 10 27 C9.67 27.66 9.34 28.32 9 29 C8.01 28.67 7.02 28.34 6 28 C6 27.34 6 26.68 6 26 C5.34 26 4.68 26 4 26 C2.74609375 24.35546875 2.74609375 24.35546875 1.4375 22.1875 C1.00308594 21.47980469 0.56867188 20.77210938 0.12109375 20.04296875 C-2.03634506 16.11146876 -2.16282194 12.85487262 -2.1875 8.4375 C-2.20167969 7.28121094 -2.21585937 6.12492188 -2.23046875 4.93359375 C-2 2 -2 2 0 0 Z " fill="#477BDB" transform="translate(94,245)"/>
<path d="M0 0 C1.2065625 0.0309375 1.2065625 0.0309375 2.4375 0.0625 C2.4375 0.7225 2.4375 1.3825 2.4375 2.0625 C1.7775 2.0625 1.1175 2.0625 0.4375 2.0625 C0.4375 2.7225 0.4375 3.3825 0.4375 4.0625 C-9.31367649 8.62254913 -16.29986644 9.0479934 -26.5625 6.0625 C-26.2325 5.4025 -25.9025 4.7425 -25.5625 4.0625 C-24.54929687 4.15789062 -23.53609375 4.25328125 -22.4921875 4.3515625 C-21.14067872 4.46418823 -19.78911293 4.57613114 -18.4375 4.6875 C-17.77234375 4.75195312 -17.1071875 4.81640625 -16.421875 4.8828125 C-11.98862337 5.23051851 -8.63228572 4.8809149 -4.5625 3.0625 C-4.2325 2.4025 -3.9025 1.7425 -3.5625 1.0625 C-2.5625 0.0625 -2.5625 0.0625 0 0 Z " fill="#4B84DD" transform="translate(421.5625,268.9375)"/>
<path d="M0 0 C0.66 0.33 1.32 0.66 2 1 C1.01 2.32 0.02 3.64 -1 5 C0.32 5.66 1.64 6.32 3 7 C3 9.83967231 2.59732819 12.23735711 2 15 C1.67 15 1.34 15 1 15 C1 13.35 1 11.7 1 10 C0.01 10 -0.98 10 -2 10 C-2 11.32 -2 12.64 -2 14 C-2.66 14 -3.32 14 -4 14 C-4 11.36 -4 8.72 -4 6 C-4.99 5.67 -5.98 5.34 -7 5 C-4.69 3.35 -2.38 1.7 0 0 Z " fill="#2E78E2" transform="translate(352,232)"/>
<path d="M0 0 C0 3.63 0 7.26 0 11 C-5.28 11 -10.56 11 -16 11 C-16.33 10.34 -16.66 9.68 -17 9 C-12.05 9.33 -7.1 9.66 -2 10 C-2 7.03 -2 4.06 -2 1 C-3.65 1 -5.3 1 -7 1 C-7.66 2.65 -8.32 4.3 -9 6 C-9.66 6 -10.32 6 -11 6 C-11 4.68 -11 3.36 -11 2 C-10.01 2 -9.02 2 -8 2 C-8 1.34 -8 0.68 -8 0 C-5 -1 -5 -1 0 0 Z " fill="#6690D4" transform="translate(235,264)"/>
<path d="M0 0 C1 3 1 3 0.0703125 5.6328125 C-1.26506651 9.83389536 -1.2212895 13.50493787 -1.125 17.875 C-1.11146484 19.050625 -1.11146484 19.050625 -1.09765625 20.25 C-1.07428063 22.16680055 -1.03841653 24.08344191 -1 26 C-0.01 26.33 0.98 26.66 2 27 C2.33 28.65 2.66 30.3 3 32 C-1.78013812 27.72303431 -3.65951132 24.66680116 -4.25390625 18.265625 C-4.53035281 11.23853186 -3.46261706 6.1214123 0 0 Z " fill="#5182DA" transform="translate(344,238)"/>
<path d="M0 0 C1.64574566 -0.02688151 3.29161413 -0.04634123 4.9375 -0.0625 C5.85402344 -0.07410156 6.77054688 -0.08570313 7.71484375 -0.09765625 C10 0 10 0 11 1 C11.07205511 2.68608966 11.08386068 4.37500659 11.0625 6.0625 C11.05347656 6.98160156 11.04445312 7.90070313 11.03515625 8.84765625 C11.02355469 9.55792969 11.01195312 10.26820313 11 11 C10.01 11.495 10.01 11.495 9 12 C8.67 9.03 8.34 6.06 8 3 C7.05125 3.474375 6.1025 3.94875 5.125 4.4375 C3.41666667 5.29166667 1.70833333 6.14583333 0 7 C0 4.69 0 2.38 0 0 Z " fill="#1158D4" transform="translate(214,220)"/>
<path d="M0 0 C0.99 0 1.98 0 3 0 C3.33 1.65 3.66 3.3 4 5 C5.65 4.34 7.3 3.68 9 3 C9.66 5.64 10.32 8.28 11 11 C7 10 7 10 6 9 C4.00577205 8.63371323 2.00546689 8.29868656 0 8 C0 5.33333333 0 2.66666667 0 0 Z " fill="#0D67EE" transform="translate(146,262)"/>
<path d="M0 0 C3.32812571 0.57381478 4.69842455 1.59380748 7 4 C7.66 4 8.32 4 9 4 C9.33 6.31 9.66 8.62 10 11 C10.66 10.67 11.32 10.34 12 10 C12.36256858 11.4562672 12.71479793 12.91511185 13.0625 14.375 C13.25972656 15.18710938 13.45695312 15.99921875 13.66015625 16.8359375 C14 19 14 19 13 21 C12.67725098 20.47043701 12.35450195 19.94087402 12.02197266 19.39526367 C10.55695409 16.99228554 9.09098755 14.5898871 7.625 12.1875 C7.11710937 11.35412109 6.60921875 10.52074219 6.0859375 9.66210938 C5.59609375 8.85966797 5.10625 8.05722656 4.6015625 7.23046875 C4.15119629 6.49207764 3.70083008 5.75368652 3.23681641 4.99291992 C2.19092775 3.3076477 1.10021334 1.65032001 0 0 Z " fill="#487FDB" transform="translate(297,238)"/>
<path d="M0 0 C0.33 0 0.66 0 1 0 C1.33 7.92 1.66 15.84 2 24 C2.66 24.33 3.32 24.66 4 25 C4.625 27.5625 4.625 27.5625 5 30 C4.34 30 3.68 30 3 30 C-1.85760643 21.76318909 -1.98770141 11.17313379 -0.5 1.875 C-0.335 1.25625 -0.17 0.6375 0 0 Z " fill="#608BD2" transform="translate(213,243)"/>
<path d="M0 0 C2.31 0.66 4.62 1.32 7 2 C7 3.32 7 4.64 7 6 C6.34 6 5.68 6 5 6 C4.9175 6.5775 4.835 7.155 4.75 7.75 C3.79468987 10.6159304 2.21530827 11.9990764 0 14 C-0.66 13.01 -1.32 12.02 -2 11 C-1.34 9.68 -0.68 8.36 0 7 C0.99 7.33 1.98 7.66 3 8 C2.67 7.01 2.34 6.02 2 5 C1.34 4.67 0.68 4.34 0 4 C0 2.68 0 1.36 0 0 Z " fill="#3F77DF" transform="translate(376,259)"/>
<path d="M0 0 C2.97 0 5.94 0 9 0 C8.34 0.66 7.68 1.32 7 2 C6.01 2 5.02 2 4 2 C3.67 3.65 3.34 5.3 3 7 C2.01 6.67 1.02 6.34 0 6 C-2.00431449 6.65358081 -4.0040278 7.32136945 -6 8 C-8.875 8.125 -8.875 8.125 -11 8 C-10.67 7.34 -10.34 6.68 -10 6 C-7.67843403 5.59270772 -5.3431213 5.25561323 -3 5 C-2.67 4.01 -2.34 3.02 -2 2 C-1.34 2 -0.68 2 0 2 C0 1.34 0 0.68 0 0 Z " fill="#6590E3" transform="translate(124,259)"/>
<path d="M0 0 C-1 3 -1 3 -3 4 C-3.65213292 6.02463255 -3.65213292 6.02463255 -4 8 C-3.34 8.33 -2.68 8.66 -2 9 C-4.70879335 10.35439668 -7.00933268 10.06501451 -10 10 C-9 7 -9 7 -7 5 C-7.66 4.01 -8.32 3.02 -9 2 C-5.86501708 0.14223235 -3.62528568 -0.20140476 0 0 Z " fill="#2E7EED" transform="translate(166,267)"/>
<path d="M0 0 C1.66611905 -0.042721 3.33382885 -0.04063832 5 0 C5.33 0.33 5.66 0.66 6 1 C7.34747084 1.23075082 8.70377565 1.41153063 10.0625 1.5625 C11.361875 1.706875 12.66125 1.85125 14 2 C14 4.97 14 7.94 14 11 C13.34 11 12.68 11 12 11 C12 9.02 12 7.04 12 5 C7.71 4.34 3.42 3.68 -1 3 C-0.67 2.01 -0.34 1.02 0 0 Z " fill="#4F88DF" transform="translate(400,255)"/>
<path d="M0 0 C0.66 0 1.32 0 2 0 C2.87321158 3.20177579 2.96295734 5.23460353 2.4375 8.5625 C1.97323803 12.21027261 2.31765155 12.95074343 4 16 C3.625 18.25 3.625 18.25 3 20 C-0.31558515 15.61487125 -1.54996653 12.62541841 -2 7 C-1.01 6.67 -0.02 6.34 1 6 C0.67 4.02 0.34 2.04 0 0 Z " fill="#2A71DA" transform="translate(312,247)"/>
<path d="M0 0 C3.50297874 4.02193856 9 10.39433144 9 16 C6.6875 15.5 6.6875 15.5 4 14 C1.56514079 9.70202989 0.60770709 4.86165676 0 0 Z " fill="#5084DA" transform="translate(300,217)"/>
<path d="M0 0 C2.31 0 4.62 0 7 0 C7.33 1.32 7.66 2.64 8 4 C4.91190305 5.76462683 3.76687864 6 0 6 C0 4.02 0 2.04 0 0 Z " fill="#2468DA" transform="translate(127,260)"/>
<path d="M0 0 C0.99 0.33 1.98 0.66 3 1 C3.02696365 2.79158489 3.04637917 4.58328473 3.0625 6.375 C3.07410156 7.37273437 3.08570313 8.37046875 3.09765625 9.3984375 C3 12 3 12 2 14 C1.34 14 0.68 14 0 14 C0 9.38 0 4.76 0 0 Z " fill="#5186D8" transform="translate(423,255)"/>
<path d="M0 0 C0.33 0 0.66 0 1 0 C1.03758423 0.96824707 1.03758423 0.96824707 1.07592773 1.95605469 C1.19214433 4.88755894 1.31475442 7.81876217 1.4375 10.75 C1.47681641 11.76578125 1.51613281 12.7815625 1.55664062 13.828125 C1.59853516 14.8078125 1.64042969 15.7875 1.68359375 16.796875 C1.72025146 17.69760742 1.75690918 18.59833984 1.79467773 19.52636719 C1.98306407 21.79596339 2.37366501 23.81562887 3 26 C2.01 26 1.02 26 0 26 C-1.2428547 20.45778869 -0.91100229 15.24109437 -0.5625 9.625 C-0.48418945 8.23474609 -0.48418945 8.23474609 -0.40429688 6.81640625 C-0.27544122 4.54386099 -0.14051689 2.27184901 0 0 Z " fill="#2D70D7" transform="translate(436,244)"/>
<path d="M0 0 C1.32 0 2.64 0 4 0 C4 0.66 4 1.32 4 2 C8.29 2 12.58 2 17 2 C17.33 2.66 17.66 3.32 18 4 C15.75026553 4.054138 13.50015617 4.09285491 11.25 4.125 C9.99703125 4.14820313 8.7440625 4.17140625 7.453125 4.1953125 C4.27179508 4.01537302 2.63478104 3.68998582 0 2 C0 1.34 0 0.68 0 0 Z " fill="#447DD2" transform="translate(438,271)"/>
<path d="M0 0 C2.64 0 5.28 0 8 0 C8.28875 0.78375 8.5775 1.5675 8.875 2.375 C9.84912254 5.09671632 9.84912254 5.09671632 12 7 C9.69 7.33 7.38 7.66 5 8 C5 5.69 5 3.38 5 1 C3.35 1 1.7 1 0 1 C0 0.67 0 0.34 0 0 Z " fill="#2371E7" transform="translate(406,266)"/>
<path d="M0 0 C1.125 3.75 1.125 3.75 0 6 C-0.07033769 7.87379605 -0.0843022 9.75001102 -0.0625 11.625 C-0.05347656 12.62789062 -0.04445313 13.63078125 -0.03515625 14.6640625 C-0.02355469 15.43492187 -0.01195312 16.20578125 0 17 C-0.66 17 -1.32 17 -2 17 C-3.75179535 11.74461396 -3.64761951 7.51111219 -1.5 2.5 C-1.005 1.675 -0.51 0.85 0 0 Z " fill="#5D8ADA" transform="translate(391,235)"/>
<path d="M0 0 C3.64775386 3.88309282 4.58525633 6.71201818 5 12 C4.01 12.495 4.01 12.495 3 13 C3 11.68 3 10.36 3 9 C2.01 8.67 1.02 8.34 0 8 C0 5.36 0 2.72 0 0 Z " fill="#4C86DE" transform="translate(130,237)"/>
<path d="M0 0 C5.61 0.66 11.22 1.32 17 2 C17 2.66 17 3.32 17 4 C10.93107371 4.25287193 5.83799592 3.69832609 0 2 C0 1.34 0 0.68 0 0 Z " fill="#779EDC" transform="translate(395,273)"/>
<path d="M0 0 C1.98 0.495 1.98 0.495 4 1 C4 4.96 4 8.92 4 13 C2.21464561 10.32196842 1.14530051 7.97778133 0 5 C-0.33 4.34 -0.66 3.68 -1 3 C-0.67 2.01 -0.34 1.02 0 0 Z " fill="#115DD4" transform="translate(147,247)"/>
<path d="M0 0 C0.33 0.66 0.66 1.32 1 2 C1.66 2 2.32 2 3 2 C3.84114171 3.43294498 4.67265687 4.87154405 5.5 6.3125 C6.19609375 7.51326172 6.19609375 7.51326172 6.90625 8.73828125 C8 11 8 11 8 14 C7.01 13.67 6.02 13.34 5 13 C4.29788106 11.34795544 3.63028587 9.68076231 3 8 C2.34 7.67 1.68 7.34 1 7 C0.59270772 4.67843403 0.25561323 2.3431213 0 0 Z " fill="#5484DA" transform="translate(309,233)"/>
<path d="M0 0 C5.94 0.99 5.94 0.99 12 2 C12 3.32 12 4.64 12 6 C10.68 6.33 9.36 6.66 8 7 C8 6.01 8 5.02 8 4 C5.03 3.67 2.06 3.34 -1 3 C-0.67 2.01 -0.34 1.02 0 0 Z " fill="#4D88E5" transform="translate(404,238)"/>
<path d="M0 0 C1.32 0.66 2.64 1.32 4 2 C3.67 5.3 3.34 8.6 3 12 C0 13 0 13 -2.1875 12.0625 C-2.785625 11.711875 -3.38375 11.36125 -4 11 C-3.01 10.67 -2.02 10.34 -1 10 C-0.67 6.7 -0.34 3.4 0 0 Z " fill="#66A0E9" transform="translate(434,220)"/>
<path d="M0 0 C1.32 0 2.64 0 4 0 C4 0.99 4 1.98 4 3 C4.99 3.33 5.98 3.66 7 4 C7 4.99 7 5.98 7 7 C3.75791433 6.64950425 2.38472296 6.43778819 0.1875 3.9375 C-0.4003125 2.9784375 -0.4003125 2.9784375 -1 2 C-0.67 1.34 -0.34 0.68 0 0 Z " fill="#0A60E0" transform="translate(372,260)"/>
<path d="M0 0 C1.65 0.33 3.3 0.66 5 1 C5 2.65 5 4.3 5 6 C3.35 6 1.7 6 0 6 C-1 3 -1 3 0 0 Z " fill="#0E67EB" transform="translate(450,267)"/>
<path d="M0 0 C0.99 0 1.98 0 3 0 C3 0.99 3 1.98 3 3 C3.99 3.33 4.98 3.66 6 4 C6 4.99 6 5.98 6 7 C6.66 7.33 7.32 7.66 8 8 C4 8 4 8 2.3125 6.8125 C0.69869237 4.58390852 0.36512747 2.7019433 0 0 Z " fill="#3A77D9" transform="translate(388,264)"/>
<path d="M0 0 C0.433125 0.598125 0.86625 1.19625 1.3125 1.8125 C2.77989559 3.71467946 4.26869038 5.34396471 6 7 C6.66 7.66 7.32 8.32 8 9 C6.02 9.66 4.04 10.32 2 11 C0.57741188 7.17679443 -0.24042276 4.08718695 0 0 Z " fill="#3876DB" transform="translate(104,257)"/>
<path d="M0 0 C0.33 1.32 0.66 2.64 1 4 C0.34 4 -0.32 4 -1 4 C-1.66 5.98 -2.32 7.96 -3 10 C-3.99 10 -4.98 10 -6 10 C-6.33 9.01 -6.66 8.02 -7 7 C-6.360625 6.731875 -5.72125 6.46375 -5.0625 6.1875 C-2.66868314 5.11332248 -2.66868314 5.11332248 -2 2 C-1.34 2 -0.68 2 0 2 C0 1.34 0 0.68 0 0 Z " fill="#1C6CF0" transform="translate(401,244)"/>
<path d="M0 0 C12.9019095 -0.86140345 12.9019095 -0.86140345 16.8125 2.5 C17.534375 3.325 18.25625 4.15 19 5 C18.01 5.33 17.02 5.66 16 6 C15.34 5.67 14.68 5.34 14 5 C14 4.34 14 3.68 14 3 C13.34 3 12.68 3 12 3 C12 2.34 12 1.68 12 1 C8.04 1 4.08 1 0 1 C0 0.67 0 0.34 0 0 Z " fill="#557FD2" transform="translate(257,231)"/>
<path d="M0 0 C1.32 0.33 2.64 0.66 4 1 C2.60667426 4.36720387 1.0210714 5.9859524 -2 8 C-2.66 7.67 -3.32 7.34 -4 7 C-4 6.34 -4 5.68 -4 5 C-2.68 4.34 -1.36 3.68 0 3 C0 2.01 0 1.02 0 0 Z " fill="#447CDF" transform="translate(129,265)"/>
<path d="M0 0 C0.66 0.33 1.32 0.66 2 1 C1.34 2.98 0.68 4.96 0 7 C-1.98 7 -3.96 7 -6 7 C-5.67 6.01 -5.34 5.02 -5 4 C-4.34 4 -3.68 4 -3 4 C-3 3.34 -3 2.68 -3 2 C-2.01 1.34 -1.02 0.68 0 0 Z " fill="#4478DA" transform="translate(148,233)"/>
<path d="M0 0 C3 3.75 3 3.75 3 6 C5.475 6.99 5.475 6.99 8 8 C5 9 5 9 1 9 C0.34 8.34 -0.32 7.68 -1 7 C-0.625 3.375 -0.625 3.375 0 0 Z " fill="#3E75DC" transform="translate(352,257)"/>
<path d="M0 0 C1.65 0 3.3 0 5 0 C5.33 2.31 5.66 4.62 6 7 C5.67 6.01 5.34 5.02 5 4 C4.34 4 3.68 4 3 4 C2.34 4.66 1.68 5.32 1 6 C0 1.125 0 1.125 0 0 Z " fill="#246ADE" transform="translate(294,214)"/>
<path d="M0 0 C0.969375 0.309375 1.93875 0.61875 2.9375 0.9375 C7.23664491 2.17967097 11.55342634 2.61684853 16 3 C16 3.33 16 3.66 16 4 C11.38 4 6.76 4 2 4 C1.34 2.68 0.68 1.36 0 0 Z " fill="#5280CC" transform="translate(318,271)"/>
<path d="M0 0 C2 2 2 2 2 4 C1.01 4 0.02 4 -1 4 C-1 4.66 -1 5.32 -1 6 C-0.34 6.33 0.32 6.66 1 7 C-0.65 7.33 -2.3 7.66 -4 8 C-3.50168276 4.31245243 -2.89932357 2.39509338 0 0 Z " fill="#0F61DD" transform="translate(166,267)"/>
<path d="M0 0 C-1.423125 0.0928125 -1.423125 0.0928125 -2.875 0.1875 C-4.421875 0.5896875 -4.421875 0.5896875 -6 1 C-7.45291273 3.46255685 -7.45291273 3.46255685 -8 6 C-8.66 6 -9.32 6 -10 6 C-10 4.68 -10 3.36 -10 2 C-9.01 2 -8.02 2 -7 2 C-7 1.34 -7 0.68 -7 0 C-3.86650268 -1.04449911 -3.01031744 -0.93423645 0 0 Z " fill="#458AF1" transform="translate(234,264)"/>
<path d="M0 0 C0 1.65 0 3.3 0 5 C-1.98 5.99 -1.98 5.99 -4 7 C-4.33 5.68 -4.66 4.36 -5 3 C-1.125 0 -1.125 0 0 0 Z " fill="#056AE2" transform="translate(398,244)"/>
<path d="M0 0 C2.475 0.99 2.475 0.99 5 2 C4.34 3.32 3.68 4.64 3 6 C2.34 6 1.68 6 1 6 C0.67 4.02 0.34 2.04 0 0 Z " fill="#3179E5" transform="translate(166,232)"/>
<path d="M0 0 C3.3 0 6.6 0 10 0 C8.68 1.32 7.36 2.64 6 4 C5.01 3.67 4.02 3.34 3 3 C3 2.34 3 1.68 3 1 C2.01 0.67 1.02 0.34 0 0 Z " fill="#1065EE" transform="translate(287,215)"/>
<path d="M0 0 C0.33 0 0.66 0 1 0 C1.04898438 0.60328125 1.09796875 1.2065625 1.1484375 1.828125 C1.22320312 2.62734375 1.29796875 3.4265625 1.375 4.25 C1.44460937 5.03890625 1.51421875 5.8278125 1.5859375 6.640625 C2.01507113 9.085877 2.78600638 10.84836903 4 13 C2.68 12.67 1.36 12.34 0 12 C0 8.04 0 4.08 0 0 Z " fill="#8AB1EA" transform="translate(151,250)"/>
<path d="M0 0 C2.0245738 1.93254772 3.42105792 3.63158688 5 6 C4.67 6.99 4.34 7.98 4 9 C3.34 9 2.68 9 2 9 C0.50178941 5.62902617 0 3.79557881 0 0 Z " fill="#618CE0" transform="translate(378,237)"/>
<path d="M0 0 C0.99 0.33 1.98 0.66 3 1 C2.67 2.32 2.34 3.64 2 5 C-0.64 4.67 -3.28 4.34 -6 4 C-4.03617993 2.49440461 -2.21736634 1.10868317 0 0 Z " fill="#4385EF" transform="translate(164,238)"/>
<path d="M0 0 C3.63 0.33 7.26 0.66 11 1 C11 1.33 11 1.66 11 2 C8.03 2 5.06 2 2 2 C1.67 2.99 1.34 3.98 1 5 C0.67 3.35 0.34 1.7 0 0 Z " fill="#144AC9" transform="translate(388,260)"/>
<path d="M0 0 C0 0.66 0 1.32 0 2 C-3.3 2.33 -6.6 2.66 -10 3 C-6.8902731 -0.1097269 -4.26569367 -2.13284683 0 0 Z " fill="#357ADB" transform="translate(108,234)"/>
<path d="M0 0 C0.33 1.32 0.66 2.64 1 4 C0.34 4 -0.32 4 -1 4 C-1 4.99 -1 5.98 -1 7 C-1.66 7 -2.32 7 -3 7 C-3 6.34 -3 5.68 -3 5 C-3.66 4.67 -4.32 4.34 -5 4 C-4.0409375 3.8453125 -4.0409375 3.8453125 -3.0625 3.6875 C-2.381875 3.460625 -1.70125 3.23375 -1 3 C-0.67 2.01 -0.34 1.02 0 0 Z " fill="#4B81DB" transform="translate(169,260)"/>
<path d="M0 0 C2.475 0.99 2.475 0.99 5 2 C5 2.66 5 3.32 5 4 C3.68 4.33 2.36 4.66 1 5 C0.34 3.68 -0.32 2.36 -1 1 C-0.67 0.67 -0.34 0.34 0 0 Z " fill="#0769E6" transform="translate(124,264)"/>
</svg>
